# xmcd
#
# Track frame offsets:
# 150
# 13047
# 36862
# 52415
# 74707
# 93132
# 110715
# 135850
# 153902
# 171415
#
# Disc length: 2405 seconds
#
#
# Revision: 3
# Processed by: cddbd v1.5.1PL2 Copyright (c) Steve Scherf et al.
# Submitted via: FreeRIP 2.945 
#
DISCID=8909630a
DTITLE=Dirk Michaelis - Pardon
DYEAR=1995
DGENRE=blues
TTITLE0=Ich hab Hunger wie ein kleiner Vogel
TTITLE1=Pardon
TTITLE2=Badewasser
TTITLE3=Frei wie der Wind
TTITLE4=Verkaufte Braut
TTITLE5=Dubidu
TTITLE6=Der Dich liebt
TTITLE7=Augen zu Armer Irrer
TTITLE8=Komm wir geh'n nach Haus
TTITLE9=Elegance
EXTD=
EXTT0=
EXTT1=
EXTT2=
EXTT3=
EXTT4=
EXTT5=
EXTT6=
EXTT7=
EXTT8=
EXTT9=
PLAYORDER=
